<svg  viewBox="0 0 157 96" fill="none" xmlns="http://www.w3.org/2000/svg">
<path d="M132.359 62.25H155.75V94.75H132.541L140.69 85.1619L140.785 85.0505L140.734 84.9133L132.359 62.25Z" fill="white" stroke="black" stroke-width="0.5"/>
<path d="M140.031 55.6813L140.149 55.6081V55.4686C140.149 53.5121 139.015 51.2694 137.56 49.1028C136.359 47.3135 134.912 45.5396 133.64 43.9792C133.365 43.6419 133.098 43.3146 132.844 42.9993C132.125 42.1085 131.507 41.3163 131.075 40.6588C130.859 40.3301 130.694 40.0417 130.587 39.7964C130.477 39.5464 130.438 39.3652 130.446 39.2429C130.452 39.1405 130.49 39.0818 130.572 39.0363C130.674 38.9796 130.862 38.9378 131.181 38.9503C131.812 38.9752 132.823 39.207 134.32 39.7062L135.05 39.9493L134.603 39.3237C132.104 35.8248 130.582 33.439 129.825 31.9495C129.443 31.1962 129.273 30.7047 129.252 30.4249C129.243 30.305 129.264 30.2648 129.269 30.2579C129.276 30.254 129.303 30.2452 129.37 30.253C129.472 30.2648 129.619 30.3108 129.817 30.4043C130.011 30.4963 130.241 30.6278 130.504 30.7978C131.03 31.1379 131.674 31.6227 132.413 32.2292C133.889 33.4416 135.727 35.1267 137.725 37.0766C141.719 40.9761 146.339 45.9225 149.958 50.2371C151.768 52.3948 153.324 54.3904 154.427 56.0157C154.978 56.8287 155.413 57.5443 155.709 58.138C156.01 58.7415 156.149 59.1861 156.149 59.4689C156.149 60.7988 155.762 61.5917 155.147 62.0704C154.518 62.5604 153.603 62.7607 152.464 62.7901C151.329 62.8194 150.02 62.6791 148.631 62.5284L148.589 62.5237C147.22 62.3752 145.782 62.219 144.399 62.219C143.346 62.219 141.916 62.345 140.418 62.4769C139.934 62.5195 139.443 62.5628 138.955 62.6026C136.939 62.7672 134.988 62.8724 133.745 62.6599C133.438 62.6073 133.184 62.5368 132.989 62.4486C132.793 62.36 132.671 62.2609 132.605 62.1601C132.491 61.987 132.471 61.6872 132.859 61.1358C133.24 60.5931 133.964 59.887 135.138 58.9821C136.308 58.0801 137.91 56.9914 140.031 55.6813ZM129.266 30.2596C129.266 30.2595 129.267 30.259 129.268 30.2583C129.267 30.2593 129.266 30.2596 129.266 30.2596Z" fill="white" stroke="black" stroke-width="0.5"/>
<rect x="31.5" y="56.348" width="18" height="99" rx="4.5" transform="rotate(-90 31.5 56.348)" fill="#FFFDFD" stroke="black"/>
<path d="M54.6189 51.0742C54.5056 51.0742 54.4156 51.0409 54.3489 50.9742C54.2822 50.9009 54.2489 50.8009 54.2489 50.6742V46.1542C54.2489 45.4476 54.4489 44.8909 54.8489 44.4842C55.2489 44.0776 55.7989 43.8742 56.4989 43.8742C56.9056 43.8742 57.2789 43.9809 57.6189 44.1942C57.9656 44.4009 58.2256 44.6776 58.3989 45.0242C58.5722 44.6709 58.8256 44.3909 59.1589 44.1842C59.4989 43.9776 59.8789 43.8742 60.2989 43.8742C60.9989 43.8742 61.5489 44.0776 61.9489 44.4842C62.3489 44.8842 62.5489 45.4409 62.5489 46.1542V50.6742C62.5489 50.8009 62.5122 50.9009 62.4389 50.9742C62.3722 51.0409 62.2822 51.0742 62.1689 51.0742C62.0489 51.0742 61.9556 51.0409 61.8889 50.9742C61.8289 50.9009 61.7989 50.8009 61.7989 50.6742V46.1542C61.7989 45.6276 61.6789 45.2242 61.4389 44.9442C61.2056 44.6642 60.8189 44.5242 60.2789 44.5242C59.8056 44.5242 59.4356 44.6709 59.1689 44.9642C58.9022 45.2509 58.7689 45.6476 58.7689 46.1542V50.6742C58.7689 50.8009 58.7356 50.9009 58.6689 50.9742C58.6022 51.0409 58.5122 51.0742 58.3989 51.0742C58.2856 51.0742 58.1956 51.0409 58.1289 50.9742C58.0689 50.9009 58.0389 50.8009 58.0389 50.6742V46.1542C58.0389 45.6609 57.8989 45.2676 57.6189 44.9742C57.3389 44.6742 56.9722 44.5242 56.5189 44.5242C55.9789 44.5242 55.5889 44.6642 55.3489 44.9442C55.1156 45.2242 54.9989 45.6276 54.9989 46.1542V50.6742C54.9989 50.8009 54.9656 50.9009 54.8989 50.9742C54.8322 51.0409 54.7389 51.0742 54.6189 51.0742ZM66.2436 53.4742C65.7503 53.4742 65.3103 53.4009 64.9236 53.2542C64.5369 53.1076 64.2536 52.9076 64.0736 52.6542C64.0269 52.5876 64.0036 52.5209 64.0036 52.4542C64.0036 52.3476 64.0569 52.2542 64.1636 52.1742C64.2036 52.1409 64.2636 52.1242 64.3436 52.1242C64.4569 52.1242 64.5636 52.1776 64.6636 52.2842C64.8103 52.4576 65.0236 52.5942 65.3036 52.6942C65.5903 52.8009 65.8936 52.8542 66.2136 52.8542C66.8136 52.8542 67.2869 52.6742 67.6336 52.3142C67.9869 51.9542 68.1636 51.4676 68.1636 50.8542V50.1742C67.9569 50.4476 67.6936 50.6576 67.3736 50.8042C67.0536 50.9442 66.7003 51.0142 66.3136 51.0142C65.5003 51.0142 64.8636 50.7842 64.4036 50.3242C63.9503 49.8576 63.7236 49.2109 63.7236 48.3842V46.3442C63.7236 46.2442 63.7603 46.1609 63.8336 46.0942C63.9069 46.0209 63.9969 45.9842 64.1036 45.9842C64.2103 45.9842 64.2969 46.0209 64.3636 46.0942C64.4369 46.1609 64.4736 46.2442 64.4736 46.3442V48.3842C64.4736 49.0242 64.6336 49.5242 64.9536 49.8842C65.2803 50.2376 65.7336 50.4142 66.3136 50.4142C66.8869 50.4142 67.3303 50.2442 67.6436 49.9042C67.9569 49.5642 68.1136 49.0809 68.1136 48.4542V46.4442C68.1136 46.2976 68.1469 46.1842 68.2136 46.1042C68.2869 46.0176 68.3869 45.9742 68.5136 45.9742C68.6336 45.9742 68.7269 46.0176 68.7936 46.1042C68.8669 46.1842 68.9036 46.2976 68.9036 46.4442V50.8042C68.9036 51.3309 68.7903 51.7942 68.5636 52.1942C68.3436 52.6009 68.0336 52.9142 67.6336 53.1342C67.2336 53.3609 66.7703 53.4742 66.2436 53.4742ZM74.3491 50.9742C73.9425 50.9742 73.6258 50.8676 73.3991 50.6542C73.1725 50.4342 73.0591 50.1342 73.0591 49.7542V44.2742C73.0591 44.1476 73.0925 44.0509 73.1591 43.9842C73.2258 43.9109 73.3158 43.8742 73.4291 43.8742C73.5491 43.8742 73.6425 43.9109 73.7091 43.9842C73.7758 44.0509 73.8091 44.1476 73.8091 44.2742V49.7742C73.8091 49.9476 73.8558 50.0876 73.9491 50.1942C74.0491 50.3009 74.1791 50.3542 74.3391 50.3542L77.6691 50.3542C77.9291 50.3542 78.0591 50.4576 78.0591 50.6642C78.0591 50.7642 78.0258 50.8409 77.9591 50.8942C77.8925 50.9476 77.7958 50.9742 77.6691 50.9742L74.3491 50.9742ZM79.7487 44.9142C79.602 44.9142 79.4753 44.8676 79.3687 44.7742C79.2687 44.6742 79.2187 44.5542 79.2187 44.4142C79.2187 44.2742 79.2687 44.1542 79.3687 44.0542C79.4753 43.9542 79.602 43.9042 79.7487 43.9042C79.8953 43.9042 80.022 43.9576 80.1287 44.0642C80.242 44.1642 80.2987 44.2809 80.2987 44.4142C80.2987 44.5476 80.242 44.6642 80.1287 44.7642C80.022 44.8642 79.8953 44.9142 79.7487 44.9142ZM79.7487 51.0742C79.6353 51.0742 79.5453 51.0409 79.4787 50.9742C79.4187 50.9009 79.3887 50.8009 79.3887 50.6742V46.3742C79.3887 46.2476 79.4187 46.1509 79.4787 46.0842C79.5453 46.0109 79.6353 45.9742 79.7487 45.9742C79.8687 45.9742 79.9587 46.0109 80.0187 46.0842C80.0853 46.1509 80.1187 46.2476 80.1187 46.3742V50.6742C80.1187 50.8009 80.0853 50.9009 80.0187 50.9742C79.9587 51.0409 79.8687 51.0742 79.7487 51.0742ZM82.0587 51.0742C81.9453 51.0742 81.8553 51.0409 81.7887 50.9742C81.7287 50.9009 81.6987 50.8009 81.6987 50.6742V43.7842C81.6987 43.6576 81.7287 43.5609 81.7887 43.4942C81.8553 43.4209 81.9453 43.3842 82.0587 43.3842C82.172 43.3842 82.262 43.4209 82.3287 43.4942C82.3953 43.5609 82.4287 43.6576 82.4287 43.7842L82.4387 46.9942C82.9987 46.3142 83.7153 45.9742 84.5887 45.9742C85.1287 45.9742 85.5987 46.0776 85.9987 46.2842C86.3987 46.4909 86.7053 46.7876 86.9187 47.1742C87.1387 47.5542 87.2487 48.0042 87.2487 48.5242C87.2487 49.3376 87.0153 49.9676 86.5487 50.4142C86.082 50.8542 85.4253 51.0742 84.5787 51.0742C83.6387 51.0742 82.922 50.7276 82.4287 50.0342V50.6742C82.4287 50.7942 82.3953 50.8909 82.3287 50.9642C82.2687 51.0376 82.1787 51.0742 82.0587 51.0742ZM84.5287 50.4442C85.182 50.4442 85.6753 50.2842 86.0087 49.9642C86.342 49.6376 86.5087 49.1576 86.5087 48.5242C86.5087 47.9242 86.332 47.4542 85.9787 47.1142C85.6253 46.7742 85.142 46.6042 84.5287 46.6042C84.1287 46.6042 83.7687 46.6876 83.4487 46.8542C83.1287 47.0142 82.8787 47.2409 82.6987 47.5342C82.5187 47.8276 82.4287 48.1576 82.4287 48.5242C82.4287 49.1176 82.6153 49.5876 82.9887 49.9342C83.362 50.2742 83.8753 50.4442 84.5287 50.4442ZM88.7486 51.0742C88.6353 51.0742 88.5453 51.0409 88.4786 50.9742C88.4186 50.9009 88.3886 50.8009 88.3886 50.6742V46.3742C88.3886 46.2476 88.4186 46.1509 88.4786 46.0842C88.5386 46.0109 88.6286 45.9742 88.7486 45.9742C88.8619 45.9742 88.9486 46.0109 89.0086 46.0842C89.0753 46.1509 89.1086 46.2476 89.1086 46.3742V46.9742C89.5619 46.3742 90.1886 46.0742 90.9886 46.0742H91.2386C91.3653 46.0742 91.4653 46.1042 91.5386 46.1642C91.6119 46.2176 91.6486 46.2942 91.6486 46.3942C91.6486 46.4942 91.6119 46.5709 91.5386 46.6242C91.4653 46.6776 91.3653 46.7042 91.2386 46.7042H90.9586C90.3919 46.7042 89.9419 46.8676 89.6086 47.1942C89.2819 47.5142 89.1186 47.9509 89.1186 48.5042V50.6742C89.1186 50.7942 89.0853 50.8909 89.0186 50.9642C88.9586 51.0376 88.8686 51.0742 88.7486 51.0742ZM94.0758 51.0742C93.4225 51.0742 92.9091 50.9309 92.5358 50.6442C92.1691 50.3576 91.9858 49.9609 91.9858 49.4542C91.9858 48.9542 92.1791 48.5576 92.5658 48.2642C92.9591 47.9709 93.4925 47.8242 94.1658 47.8242C94.5591 47.8242 94.9058 47.8776 95.2058 47.9842C95.5125 48.0909 95.7491 48.2342 95.9158 48.4142V47.7742C95.9158 47.3942 95.7891 47.1042 95.5358 46.9042C95.2891 46.7042 94.9258 46.6042 94.4458 46.6042C93.8258 46.6042 93.2891 46.7509 92.8358 47.0442C92.7225 47.1109 92.6291 47.1442 92.5558 47.1442C92.4891 47.1442 92.4225 47.1176 92.3558 47.0642C92.2825 47.0042 92.2458 46.9276 92.2458 46.8342C92.2458 46.7342 92.2891 46.6509 92.3758 46.5842C92.6158 46.3976 92.9191 46.2509 93.2858 46.1442C93.6591 46.0309 94.0391 45.9742 94.4258 45.9742C95.1325 45.9742 95.6791 46.1342 96.0658 46.4542C96.4591 46.7742 96.6558 47.2242 96.6558 47.8042V50.6842C96.6558 50.9442 96.5358 51.0742 96.2958 51.0742C96.1891 51.0742 96.1025 51.0409 96.0358 50.9742C95.9691 50.9009 95.9358 50.8076 95.9358 50.6942V50.3342C95.5225 50.8276 94.9025 51.0742 94.0758 51.0742ZM94.1658 50.4642C94.6858 50.4642 95.1091 50.3676 95.4358 50.1742C95.7625 49.9742 95.9258 49.7176 95.9258 49.4042C95.9258 49.0909 95.7725 48.8509 95.4658 48.6842C95.1658 48.5109 94.7391 48.4242 94.1858 48.4242C93.7191 48.4242 93.3591 48.5142 93.1058 48.6942C92.8525 48.8676 92.7258 49.1209 92.7258 49.4542C92.7258 49.7809 92.8491 50.0309 93.0958 50.2042C93.3425 50.3776 93.6991 50.4642 94.1658 50.4642ZM98.3775 51.0742C98.2642 51.0742 98.1742 51.0409 98.1075 50.9742C98.0475 50.9009 98.0175 50.8009 98.0175 50.6742V46.3742C98.0175 46.2476 98.0475 46.1509 98.1075 46.0842C98.1675 46.0109 98.2575 45.9742 98.3775 45.9742C98.4908 45.9742 98.5775 46.0109 98.6375 46.0842C98.7042 46.1509 98.7375 46.2476 98.7375 46.3742V46.9742C99.1908 46.3742 99.8175 46.0742 100.618 46.0742H100.868C100.994 46.0742 101.094 46.1042 101.168 46.1642C101.241 46.2176 101.278 46.2942 101.278 46.3942C101.278 46.4942 101.241 46.5709 101.168 46.6242C101.094 46.6776 100.994 46.7042 100.868 46.7042H100.588C100.021 46.7042 99.5708 46.8676 99.2375 47.1942C98.9108 47.5142 98.7475 47.9509 98.7475 48.5042V50.6742C98.7475 50.7942 98.7142 50.8909 98.6475 50.9642C98.5875 51.0376 98.4975 51.0742 98.3775 51.0742ZM104.564 53.4742C104.071 53.4742 103.631 53.4009 103.244 53.2542C102.857 53.1076 102.574 52.9076 102.394 52.6542C102.347 52.5876 102.324 52.5209 102.324 52.4542C102.324 52.3476 102.377 52.2542 102.484 52.1742C102.524 52.1409 102.584 52.1242 102.664 52.1242C102.777 52.1242 102.884 52.1776 102.984 52.2842C103.131 52.4576 103.344 52.5942 103.624 52.6942C103.911 52.8009 104.214 52.8542 104.534 52.8542C105.134 52.8542 105.607 52.6742 105.954 52.3142C106.307 51.9542 106.484 51.4676 106.484 50.8542V50.1742C106.277 50.4476 106.014 50.6576 105.694 50.8042C105.374 50.9442 105.021 51.0142 104.634 51.0142C103.821 51.0142 103.184 50.7842 102.724 50.3242C102.271 49.8576 102.044 49.2109 102.044 48.3842V46.3442C102.044 46.2442 102.081 46.1609 102.154 46.0942C102.227 46.0209 102.317 45.9842 102.424 45.9842C102.531 45.9842 102.617 46.0209 102.684 46.0942C102.757 46.1609 102.794 46.2442 102.794 46.3442V48.3842C102.794 49.0242 102.954 49.5242 103.274 49.8842C103.601 50.2376 104.054 50.4142 104.634 50.4142C105.207 50.4142 105.651 50.2442 105.964 49.9042C106.277 49.5642 106.434 49.0809 106.434 48.4542V46.4442C106.434 46.2976 106.467 46.1842 106.534 46.1042C106.607 46.0176 106.707 45.9742 106.834 45.9742C106.954 45.9742 107.047 46.0176 107.114 46.1042C107.187 46.1842 107.224 46.2976 107.224 46.4442V50.8042C107.224 51.3309 107.111 51.7942 106.884 52.1942C106.664 52.6009 106.354 52.9142 105.954 53.1342C105.554 53.3609 105.091 53.4742 104.564 53.4742Z" fill="black"/>
<rect x="31.5" y="94.5" width="18" height="99" rx="4.5" transform="rotate(-90 31.5 94.5)" fill="#FFFDFD" stroke="black"/>
<rect x="31.5" y="75.5" width="18" height="99" rx="4.5" transform="rotate(-90 31.5 75.5)" fill="#FFFDFD" stroke="black"/>
<rect x="40.75" y="74.25" width="14.5" height="5.5" transform="rotate(-90 40.75 74.25)" fill="white" stroke="black" stroke-width="0.5"/>
<rect x="40.75" y="54.25" width="14.5" height="5.5" transform="rotate(-90 40.75 54.25)" fill="white" stroke="black" stroke-width="0.5"/>
<rect x="40.75" y="93.25" width="14.5" height="5.5" transform="rotate(-90 40.75 93.25)" fill="white" stroke="black" stroke-width="0.5"/>
<path d="M23.0528 70.7761L22.9318 71.0181L23.0681 71.2517C26.5598 77.2374 28.5535 81.6915 29.421 85.0015C30.2902 88.3182 30.0051 90.3906 29.0851 91.7144C28.1604 93.0451 26.4968 93.7632 24.2578 94.1314C22.0257 94.4984 19.3427 94.4997 16.5 94.4997C15.4444 94.4997 14.3759 94.5249 13.3144 94.55C11.4796 94.5932 9.66583 94.636 7.97639 94.5473C5.30083 94.4069 3.15306 93.9381 1.9106 92.7617C0.72544 91.6395 0.228545 89.7221 1.25421 86.2833C2.28004 82.8439 4.79542 78.0208 9.41249 71.2824L9.59101 71.0218L9.43242 70.7487C4.93658 63.0059 2.47511 57.6767 1.46788 54.0383C0.452603 50.3709 0.96527 48.629 2.06287 47.7683C2.64051 47.3153 3.44597 47.0449 4.46811 46.9158C5.48772 46.787 6.678 46.8041 7.98802 46.8894C8.8902 46.9481 9.85517 47.0405 10.8505 47.1358C12.6984 47.3128 14.6508 47.4997 16.5 47.4997C18.4024 47.4997 20.328 47.3021 22.0932 47.1209C22.9712 47.0308 23.8096 46.9447 24.5856 46.8891C25.7747 46.8039 26.8248 46.7877 27.7059 46.9146C28.5864 47.0415 29.2515 47.305 29.7167 47.74C30.6274 48.5917 31.0062 50.351 30.0533 54.0469C29.1123 57.6962 26.9249 63.032 23.0528 70.7761Z" fill="white" stroke="black"/>
<path d="M30.5022 48.4817C30.5022 48.4817 30.502 48.4823 30.5016 48.4835L30.5022 48.4817ZM30.3795 48.3838C30.4486 48.4401 30.4795 48.479 30.4928 48.5C30.4795 48.521 30.4486 48.5599 30.3795 48.6162C30.2368 48.7324 29.996 48.8668 29.6379 49.0079C28.9268 49.2881 27.8683 49.5506 26.5244 49.7746C23.8446 50.2212 20.1234 50.5 16 50.5C11.8766 50.5 8.15544 50.2212 5.4756 49.7746C4.13166 49.5506 3.07317 49.2881 2.36208 49.0079C2.00405 48.8668 1.76317 48.7324 1.62051 48.6162C1.55143 48.5599 1.52051 48.521 1.50721 48.5C1.52051 48.479 1.55143 48.4401 1.62051 48.3838C1.76317 48.2676 2.00405 48.1332 2.36208 47.9921C3.07317 47.7119 4.13166 47.4494 5.4756 47.2254C8.15544 46.7788 11.8766 46.5 16 46.5C20.1234 46.5 23.8446 46.7788 26.5244 47.2254C27.8683 47.4494 28.9268 47.7119 29.6379 47.9921C29.996 48.1332 30.2368 48.2676 30.3795 48.3838ZM1.49784 48.4817C1.49788 48.4817 1.49811 48.4823 1.4984 48.4835L1.49784 48.4817ZM1.49784 48.5183C1.4978 48.5183 1.49795 48.5177 1.4984 48.5165L1.49784 48.5183ZM30.5016 48.5165C30.5021 48.5177 30.5022 48.5183 30.5022 48.5183L30.5016 48.5165Z" fill="white" stroke="black"/>
<line x1="25.4851" y1="14.1213" x2="16.4851" y2="50.1213" stroke="black"/>
<path d="M20.4244 19.75L26.5 8.5252L32.5756 19.75H20.4244Z" fill="white" stroke="black" stroke-width="0.5"/>
<path d="M28.6321 16.67L17.8722 23.5354L18.008 10.7725L28.6321 16.67Z" fill="white" stroke="black" stroke-width="0.5"/>
<path d="M34.8925 24.3399L25.1179 16.1323L37.3348 12.4367L34.8925 24.3399Z" fill="white" stroke="black" stroke-width="0.5"/>
<path d="M32.4 13.2271L20.1943 16.9593L23.7439 4.69927L32.4 13.2271Z" fill="white" stroke="black" stroke-width="0.5"/>
<path d="M34.0881 6.49717L33.902 19.2594L23.3187 12.1249L34.0881 6.49717Z" fill="white" stroke="black" stroke-width="0.5"/>
<path d="M32.6882 19.1795L26.0827 30.1009L20.5508 18.5983L32.6882 19.1795Z" fill="white" stroke="black" stroke-width="0.5"/>
<circle cx="27" cy="17" r="5.75" fill="white" stroke="black" stroke-width="0.5"/>
<circle cx="27.5" cy="16.5" r="2.5" fill="black"/>
</svg>
