<svg viewBox="0 0 229 140" fill="none" xmlns="http://www.w3.org/2000/svg">
<rect width="229" height="140" fill="#FF9999"/>
<rect y="12" width="229" height="116" fill="#FDD5D5"/>
<rect x="158.5" y="20.5" width="18" height="99" rx="4.5" fill="#FFFDFD" stroke="black"/>
<rect x="177.5" y="20.5" width="18" height="99" rx="4.5" fill="#FFFDFD" stroke="black"/>
<rect x="0.5" y="20.5" width="18" height="99" rx="4.5" fill="#FFFDFD" stroke="black"/>
<rect x="19.5" y="20.5" width="18" height="99" rx="4.5" fill="#FFFDFD" stroke="black"/>
<path d="M38.5 25C38.5 22.5147 40.5147 20.5 43 20.5H52C54.4853 20.5 56.5 22.5147 56.5 25V115C56.5 117.485 54.4853 119.5 52 119.5H43C40.5147 119.5 38.5 117.485 38.5 115V25Z" fill="#FFFDFD" stroke="black"/>
<rect x="58.5503" y="119.768" width="18" height="99" rx="4.5" transform="rotate(-90 58.5503 119.768)" fill="#FFFDFD" stroke="black"/>
<rect x="63.4213" y="100.995" width="18" height="99" rx="4.5" transform="rotate(-107.19 63.4213 100.995)" fill="#FFFDFD" stroke="black"/>
<rect x="56.8332" y="42.8494" width="18" height="99" rx="4.5" transform="rotate(-83.2063 56.8332 42.8494)" fill="#FFFDFD" stroke="black"/>
<rect x="2.25" y="35.25" width="14.5" height="5.5" fill="white" stroke="black" stroke-width="0.5"/>
<rect x="21.25" y="35.25" width="14.5" height="5.5" fill="white" stroke="black" stroke-width="0.5"/>
<rect x="160.25" y="35.25" width="14.5" height="5.5" fill="white" stroke="black" stroke-width="0.5"/>
<rect x="179.25" y="35.25" width="14.5" height="5.5" fill="white" stroke="black" stroke-width="0.5"/>
<rect x="40.25" y="35.25" width="14.5" height="5.5" fill="white" stroke="black" stroke-width="0.5"/>
<rect x="0.5" y="120.5" width="228" height="7" fill="white" stroke="black"/>
<rect x="0.5" y="12.5" width="228" height="7" fill="white" stroke="black"/>
<path d="M199.359 87.25H222.75V119.75H199.541L207.69 110.162L207.785 110.05L207.734 109.913L199.359 87.25Z" fill="white" stroke="black" stroke-width="0.5"/>
<path d="M207.031 80.6813L207.149 80.6081V80.4686C207.149 78.5121 206.015 76.2694 204.56 74.1028C203.359 72.3135 201.912 70.5397 200.64 68.9792C200.365 68.6419 200.098 68.3146 199.844 67.9993C199.125 67.1085 198.507 66.3163 198.075 65.6588C197.859 65.3301 197.694 65.0417 197.587 64.7964C197.477 64.5464 197.438 64.3652 197.446 64.2429C197.452 64.1405 197.49 64.0818 197.572 64.0363C197.674 63.9796 197.862 63.9378 198.181 63.9503C198.812 63.9752 199.823 64.207 201.32 64.7062L202.05 64.9493L201.603 64.3237C199.104 60.8248 197.582 58.439 196.825 56.9495C196.443 56.1962 196.273 55.7047 196.252 55.4249C196.243 55.305 196.264 55.2648 196.269 55.2579C196.276 55.254 196.303 55.2452 196.37 55.253C196.472 55.2648 196.619 55.3108 196.817 55.4043C197.011 55.4963 197.241 55.6278 197.504 55.7978C198.03 56.1379 198.674 56.6227 199.413 57.2292C200.889 58.4416 202.727 60.1267 204.725 62.0766C208.719 65.9761 213.339 70.9225 216.958 75.2371C218.768 77.3948 220.324 79.3904 221.427 81.0157C221.978 81.8287 222.413 82.5443 222.709 83.138C223.01 83.7415 223.149 84.1861 223.149 84.4689C223.149 85.7988 222.762 86.5917 222.147 87.0704C221.518 87.5604 220.603 87.7607 219.464 87.7901C218.329 87.8194 217.02 87.6791 215.631 87.5284L215.589 87.5237C214.22 87.3752 212.782 87.219 211.399 87.219C210.346 87.219 208.916 87.345 207.418 87.4769C206.934 87.5195 206.443 87.5628 205.955 87.6026C203.939 87.7672 201.988 87.8724 200.745 87.6599C200.438 87.6073 200.184 87.5368 199.989 87.4486C199.793 87.36 199.671 87.2609 199.605 87.1601C199.491 86.987 199.471 86.6872 199.859 86.1358C200.24 85.5931 200.964 84.887 202.138 83.9821C203.308 83.0801 204.91 81.9914 207.031 80.6813ZM196.266 55.2596C196.266 55.2595 196.267 55.259 196.268 55.2583C196.267 55.2593 196.266 55.2596 196.266 55.2596Z" fill="white" stroke="black" stroke-width="0.5"/>
<path d="M81.1035 40.2782C80.9908 40.2662 80.9048 40.2235 80.8456 40.1501C80.7871 40.0701 80.7646 39.9671 80.7781 39.8412L81.2588 35.3468C81.334 34.6441 81.592 34.1119 82.033 33.7501C82.474 33.3883 83.0425 33.2446 83.7385 33.319C84.1429 33.3623 84.5027 33.508 84.8181 33.7563C85.1409 33.9987 85.37 34.3014 85.5054 34.6646C85.7154 34.3317 85.997 34.0802 86.3505 33.9101C86.7105 33.7408 87.0993 33.6785 87.517 33.7231C88.213 33.7976 88.7383 34.0583 89.0927 34.5052C89.4479 34.9454 89.5876 35.5202 89.5117 36.2295L89.031 40.7239C89.0176 40.8498 88.9705 40.9453 88.8897 41.0105C88.8164 41.0697 88.7233 41.0932 88.6106 41.0812C88.4913 41.0684 88.4021 41.0254 88.3429 40.952C88.291 40.8727 88.2718 40.7701 88.2853 40.6441L88.766 36.1497C88.822 35.6261 88.7456 35.2123 88.5367 34.9083C88.3345 34.6051 87.9649 34.4248 87.428 34.3673C86.9573 34.317 86.5738 34.4235 86.2775 34.6868C85.9818 34.9435 85.807 35.3237 85.7532 35.8275L85.2725 40.3219C85.259 40.4478 85.2152 40.5437 85.1411 40.6095C85.0677 40.6687 84.9747 40.6923 84.862 40.6802C84.7493 40.6682 84.6634 40.6255 84.6042 40.5521C84.5523 40.4728 84.5331 40.3702 84.5466 40.2442L85.0273 35.7499C85.0798 35.2593 84.9824 34.8533 84.7352 34.5319C84.4887 34.2038 84.14 34.0157 83.6893 33.9675C83.1523 33.91 82.7497 34.0078 82.4812 34.2606C82.2195 34.5142 82.0606 34.9029 82.0045 35.4266L81.5238 39.9209C81.5104 40.0469 81.4666 40.1428 81.3925 40.2086C81.3191 40.2678 81.2228 40.291 81.1035 40.2782ZM92.407 43.9009C91.9164 43.8484 91.4867 43.7287 91.1179 43.5418C90.749 43.3548 90.4885 43.1258 90.3365 42.8548C90.2972 42.7835 90.2811 42.7148 90.2882 42.6485C90.2995 42.5424 90.3625 42.4553 90.477 42.3871C90.5204 42.3582 90.5818 42.348 90.6613 42.3565C90.774 42.3686 90.8744 42.4329 90.9625 42.5496C91.0899 42.7376 91.2875 42.8962 91.5553 43.0254C91.829 43.1619 92.1249 43.2472 92.4431 43.2812C93.0397 43.3451 93.5295 43.2164 93.9125 42.8953C94.3021 42.5749 94.5295 42.1098 94.5947 41.5L94.667 40.8238C94.4325 41.0736 94.1483 41.2544 93.8145 41.3662C93.4815 41.4714 93.1227 41.5034 92.7382 41.4623C91.9295 41.3758 91.3209 41.0794 90.9124 40.5731C90.5113 40.0609 90.3547 39.3938 90.4426 38.5718L90.6595 36.5433C90.6702 36.4439 90.7155 36.365 90.7955 36.3065C90.8762 36.2413 90.9696 36.2145 91.0757 36.2258C91.1817 36.2371 91.264 36.2828 91.3225 36.3628C91.3883 36.4369 91.4159 36.5237 91.4053 36.6231L91.1883 38.6515C91.1203 39.2879 91.2262 39.8021 91.5061 40.1941C91.7933 40.5802 92.2253 40.804 92.802 40.8657C93.3721 40.9267 93.831 40.8048 94.1787 40.5C94.5264 40.1953 94.7336 39.7314 94.8003 39.1083L95.014 37.1097C95.0296 36.9638 95.0748 36.8547 95.1496 36.7822C95.2317 36.7038 95.3358 36.6714 95.4617 36.6849C95.5811 36.6976 95.6692 36.7506 95.7263 36.8439C95.7907 36.9312 95.8151 37.0478 95.7995 37.1937L95.3359 41.5289C95.2798 42.0526 95.1179 42.5013 94.85 42.8749C94.588 43.2559 94.2464 43.5345 93.8253 43.7107C93.4034 43.8935 92.9307 43.9569 92.407 43.9009ZM100.732 42.2771C100.328 42.2339 100.025 42.0941 99.8219 41.8579C99.6199 41.615 99.5391 41.3047 99.5795 40.9268L100.162 35.4779C100.176 35.352 100.219 35.2594 100.293 35.2002C100.367 35.1344 100.46 35.1075 100.573 35.1195C100.692 35.1323 100.781 35.1787 100.839 35.2587C100.899 35.3321 100.922 35.4317 100.908 35.5577L100.323 41.0265C100.305 41.1988 100.336 41.343 100.418 41.459C100.506 41.5757 100.629 41.6425 100.788 41.6596L104.1 42.0137C104.358 42.0414 104.476 42.1579 104.454 42.3634C104.444 42.4629 104.402 42.5355 104.33 42.5815C104.259 42.6274 104.16 42.6437 104.034 42.6302L100.732 42.2771ZM106.746 36.8257C106.6 36.8101 106.479 36.7502 106.383 36.6461C106.294 36.536 106.257 36.4114 106.272 36.2722C106.287 36.133 106.349 36.019 106.459 35.9302C106.576 35.8421 106.707 35.8058 106.853 35.8214C106.999 35.837 107.119 35.9035 107.214 36.0209C107.316 36.1324 107.36 36.2545 107.346 36.387C107.332 36.5196 107.263 36.6296 107.14 36.717C107.023 36.8051 106.892 36.8413 106.746 36.8257ZM106.091 42.9508C105.978 42.9387 105.892 42.896 105.833 42.8226C105.781 42.7433 105.762 42.6407 105.775 42.5148L106.233 38.2391C106.246 38.1132 106.286 38.0203 106.353 37.9604C106.427 37.8945 106.52 37.8677 106.633 37.8797C106.752 37.8925 106.838 37.9385 106.89 38.0178C106.949 38.0912 106.972 38.1908 106.958 38.3168L106.501 42.5924C106.488 42.7183 106.444 42.8142 106.37 42.8801C106.303 42.94 106.21 42.9635 106.091 42.9508ZM108.388 43.1964C108.275 43.1844 108.189 43.1417 108.13 43.0683C108.078 42.989 108.059 42.8864 108.072 42.7604L108.805 35.9095C108.818 35.7836 108.859 35.6906 108.925 35.6307C108.999 35.5649 109.093 35.538 109.205 35.5501C109.318 35.5621 109.404 35.6081 109.462 35.6881C109.521 35.7615 109.544 35.8612 109.531 35.9871L109.199 39.18C109.829 38.5634 110.577 38.3016 111.446 38.3944C111.983 38.4519 112.439 38.6046 112.815 38.8526C113.19 39.1007 113.464 39.4283 113.635 39.8354C113.813 40.2367 113.875 40.6958 113.819 41.2129C113.733 42.0216 113.434 42.6232 112.922 43.0177C112.412 43.4056 111.735 43.5545 110.893 43.4644C109.959 43.3645 109.283 42.9436 108.866 42.2017L108.798 42.8381C108.785 42.9574 108.742 43.05 108.668 43.1158C108.6 43.1823 108.507 43.2092 108.388 43.1964ZM110.911 42.8327C111.56 42.9022 112.068 42.7956 112.433 42.5128C112.799 42.2235 113.016 41.7639 113.084 41.1342C113.147 40.5376 113.022 40.0514 112.707 39.6758C112.391 39.3001 111.929 39.0797 111.319 39.0145C110.921 38.9719 110.554 39.0165 110.219 39.1482C109.883 39.2733 109.611 39.4721 109.4 39.7446C109.19 40.0171 109.066 40.3357 109.027 40.7003C108.964 41.2902 109.099 41.7774 109.434 42.1618C109.769 42.5396 110.261 42.7632 110.911 42.8327ZM115.04 43.9079C114.927 43.8959 114.841 43.8531 114.782 43.7798C114.73 43.7005 114.711 43.5978 114.724 43.4719L115.181 39.1963C115.195 39.0703 115.235 38.9774 115.302 38.9175C115.369 38.851 115.463 38.8241 115.582 38.8368C115.695 38.8489 115.777 38.8946 115.829 38.9739C115.888 39.0472 115.911 39.1469 115.897 39.2729L115.834 39.8695C116.348 39.3211 117.003 39.0894 117.799 39.1745L118.047 39.2011C118.173 39.2146 118.269 39.255 118.336 39.3225C118.403 39.3833 118.431 39.4634 118.421 39.5629C118.41 39.6623 118.366 39.7346 118.287 39.7799C118.208 39.8251 118.106 39.841 117.98 39.8275L117.702 39.7977C117.138 39.7375 116.674 39.852 116.307 40.1414C115.949 40.4248 115.74 40.8416 115.681 41.3918L115.45 43.5495C115.437 43.6689 115.394 43.7614 115.32 43.8273C115.252 43.8938 115.159 43.9207 115.04 43.9079ZM120.337 44.4745C119.687 44.405 119.192 44.2079 118.851 43.8831C118.517 43.5591 118.377 43.1452 118.431 42.6414C118.484 42.1442 118.718 41.7704 119.134 41.5198C119.556 41.27 120.102 41.1809 120.772 41.2525C121.163 41.2943 121.502 41.3842 121.789 41.5222C122.082 41.6608 122.302 41.8285 122.449 42.0252L122.517 41.3889C122.558 41.011 122.462 40.7092 122.232 40.4834C122.008 40.2583 121.657 40.1202 121.18 40.0692C120.563 40.0032 120.014 40.092 119.532 40.3354C119.412 40.3897 119.316 40.4129 119.243 40.4051C119.177 40.398 119.113 40.3644 119.053 40.3043C118.986 40.2368 118.958 40.1567 118.968 40.0639C118.979 39.9645 119.03 39.8862 119.124 39.8291C119.382 39.669 119.699 39.5555 120.075 39.4884C120.459 39.4154 120.842 39.3995 121.227 39.4406C121.93 39.5158 122.456 39.733 122.807 40.0923C123.164 40.4523 123.311 40.9207 123.25 41.4974L122.943 44.3611C122.916 44.6196 122.783 44.7361 122.544 44.7106C122.438 44.6992 122.355 44.6568 122.296 44.5835C122.238 44.5035 122.214 44.4071 122.226 44.2944L122.265 43.9365C121.801 44.383 121.159 44.5624 120.337 44.4745ZM120.491 43.8775C121.008 43.9328 121.439 43.8817 121.785 43.7242C122.131 43.5601 122.32 43.3222 122.354 43.0107C122.387 42.6991 122.26 42.4442 121.973 42.2458C121.693 42.0416 121.278 41.91 120.728 41.8512C120.264 41.8016 119.896 41.8528 119.625 42.0048C119.355 42.1502 119.202 42.3886 119.167 42.7201C119.132 43.0449 119.228 43.3066 119.455 43.5052C119.681 43.7038 120.027 43.8279 120.491 43.8775ZM124.614 44.9319C124.501 44.9199 124.415 44.8772 124.356 44.8038C124.304 44.7245 124.285 44.6219 124.298 44.4959L124.756 40.2203C124.769 40.0944 124.809 40.0014 124.876 39.9415C124.944 39.875 125.037 39.8481 125.156 39.8609C125.269 39.8729 125.351 39.9186 125.403 39.9979C125.462 40.0713 125.485 40.1709 125.472 40.2969L125.408 40.8935C125.922 40.3451 126.577 40.1134 127.373 40.1985L127.622 40.2251C127.747 40.2386 127.844 40.279 127.91 40.3465C127.977 40.4073 128.006 40.4875 127.995 40.5869C127.985 40.6863 127.94 40.7587 127.861 40.8039C127.783 40.8491 127.68 40.865 127.555 40.8515L127.276 40.8218C126.713 40.7615 126.248 40.876 125.882 41.1654C125.523 41.4489 125.314 41.8657 125.255 42.4159L125.024 44.5736C125.012 44.6929 124.968 44.7855 124.894 44.8513C124.827 44.9178 124.733 44.9447 124.614 44.9319ZM130.51 47.9763C130.019 47.9238 129.59 47.8041 129.221 47.6171C128.852 47.4302 128.592 47.2012 128.439 46.9301C128.4 46.8589 128.384 46.7901 128.391 46.7238C128.403 46.6178 128.465 46.5306 128.58 46.4624C128.623 46.4335 128.685 46.4233 128.764 46.4318C128.877 46.4439 128.977 46.5083 129.065 46.625C129.193 46.8129 129.39 46.9715 129.658 47.1007C129.932 47.2373 130.228 47.3225 130.546 47.3566C131.143 47.4204 131.632 47.2917 132.015 46.9707C132.405 46.6503 132.633 46.1852 132.698 45.5753L132.77 44.8992C132.535 45.149 132.251 45.3298 131.918 45.4416C131.584 45.5467 131.226 45.5788 130.841 45.5376C130.032 45.4512 129.424 45.1547 129.015 44.6484C128.614 44.1362 128.458 43.4691 128.546 42.6471L128.763 40.6187C128.773 40.5193 128.818 40.4403 128.899 40.3818C128.979 40.3167 129.073 40.2898 129.179 40.3011C129.285 40.3125 129.367 40.3582 129.426 40.4382C129.491 40.5123 129.519 40.599 129.508 40.6984L129.291 42.7269C129.223 43.3633 129.329 43.8774 129.609 44.2694C129.896 44.6555 130.328 44.8794 130.905 44.9411C131.475 45.002 131.934 44.8801 132.282 44.5754C132.629 44.2706 132.837 43.8067 132.903 43.1836L133.117 41.185C133.133 41.0392 133.178 40.93 133.253 40.8576C133.335 40.7792 133.439 40.7467 133.565 40.7602C133.684 40.773 133.772 40.826 133.829 40.9192C133.894 41.0066 133.918 41.1232 133.903 41.269L133.439 45.6043C133.383 46.128 133.221 46.5766 132.953 46.9502C132.691 47.3312 132.349 47.6098 131.928 47.786C131.506 47.9688 131.034 48.0323 130.51 47.9763Z" fill="black"/>
</svg>
